<svg xmlns="http://www.w3.org/2000/svg" version="1.1" xmlns:xlink="http://www.w3.org/1999/xlink" width="1500" height="216" viewBox="0 0 1500 216"><svg xml:space="preserve" width="1500" height="216" data-version="2" data-id="lg_GvWdovau2Q40DhZIj8" viewBox="0 0 628 216" x="0" y="0"><rect width="100%" height="100%" fill="transparent"></rect><path fill="#fff" d="M207.218 102.959v41.72h-29.28V28.839h86.01v23.79h-56.73v26.54h53.07v23.79z"></path><rect width="86.01" height="115.84" x="-43.01" y="-57.92" fill="none" rx="0" ry="0" transform="translate(221.44 87.26)"></rect><path fill="#fff" d="M305.308 22.439q.55 6.58.55 10.98 0 2.56-.09 5.21t-.46 5.95q-3.84.73-7.5 1.1-3.66.36-7.32.36-3.48 0-7.05-.36-3.56-.37-7.22-1.1-.37-3.11-.55-5.77-.19-2.65-.19-5.21 0-2.38.19-5.13.18-2.74.55-6.03 3.66-.92 7.41-1.19 3.75-.28 7.41-.28 3.48 0 7.04.28 3.57.27 7.23 1.19m0 33.12v89.12h-29.28v-89.12z"></path><rect width="30.38" height="123.71" x="-15.19" y="-61.85" fill="none" rx="0" ry="0" transform="translate(291.17 83.32)"></rect><path fill="#fff" d="M354.908 98.749v45.93h-29.28v-89.12h27.81l1.47 16.29h.54q2.57-8.24 9.15-12.72 6.59-4.49 18.3-4.49 15.93 0 23.52 8.97t7.59 31.11v49.96h-29.28l-.18-44.29q0-10.24-3.11-14.64-3.11-4.39-11.71-4.39-8.05 0-11.35 3.94-3.29 3.93-3.47 13.45"></path><rect width="88.38" height="90.04" x="-44.19" y="-45.02" fill="none" rx="0" ry="0" transform="translate(370.32 100.16)"></rect><path fill="#fff" d="M463.418 21.519v123.16h-29.28V21.519z"></path><rect width="29.28" height="123.16" x="-14.64" y="-61.58" fill="none" rx="0" ry="0" transform="translate(449.28 83.6)"></rect><path fill="#fff" d="M513.018 22.439q.55 6.58.55 10.98 0 2.56-.09 5.21-.1 2.65-.46 5.95-3.85.73-7.51 1.1-3.66.36-7.32.36-3.47 0-7.04-.36-3.57-.37-7.23-1.1-.37-3.11-.55-5.77-.18-2.65-.18-5.21 0-2.38.18-5.13.18-2.74.55-6.03 3.66-.92 7.41-1.19 3.75-.28 7.41-.28 3.48 0 7.05.28 3.57.27 7.23 1.19m0 33.12v89.12h-29.28v-89.12z"></path><rect width="30.38" height="123.71" x="-15.19" y="-61.85" fill="none" rx="0" ry="0" transform="translate(498.88 83.32)"></rect><path fill="#fff" d="M535.158 117.959v-38.43h-10.98v-23.79h13.73l5.49-21.78h21.04v21.78h19.95v23.79h-19.95v32.03q0 5.12 1.28 7.04t5.86 1.92q2.93 0 6.22-.27 3.29-.28 6.59-.64l.55.36v23.79q-8.79 2.57-23.24 2.57-14.46 0-20.5-6.59-6.04-6.59-6.04-21.78"></path><rect width="60.76" height="112.37" x="-30.38" y="-56.19" fill="none" rx="0" ry="0" transform="translate(555.06 90.64)"></rect><path fill="#fff" d="M168.218 179.899v-.79h12.96v.79h-3.82v23.62h1.3q3.06 0 4.88-1.88 1.82-1.87 3.69-5.76h.75l-.68 8.43h-19.08v-.79h2.12v-23.62z"></path><rect width="19.76" height="25.2" x="-9.88" y="-12.6" fill="none" rx="0" ry="0" transform="translate(178.6 192.2)"></rect><path fill="#fff" d="M198.748 204.669q-4.65 0-6.97-2.4-2.32-2.39-2.32-6.66 0-4.26 2.61-6.53 2.61-2.27 6.64-2.27 8.17 0 7.85 8.21h-10.15v1.4q0 3.53.9 5.33.9 1.8 3.13 1.8 4.18 0 5.47-4.46l.65.11q-.68 2.59-2.47 4.03-1.78 1.44-5.34 1.44m-2.31-12.13v1.76h3.71v-1.76q0-2.92-.34-3.98t-1.37-1.06q-1.02 0-1.51 1.13t-.49 3.91"></path><rect width="17.2" height="17.86" x="-8.6" y="-8.93" fill="none" rx="0" ry="0" transform="translate(198.56 196.24)"></rect><path fill="#fff" d="M216.498 195.849h1.04v-2.77q0-3.42-.38-4.59t-1.46-1.17q-.64 0-1.17.34-.52.34-.52.93 0 .6.22 1.21h.9q.29.76.29 1.82t-.9 1.83q-.9.78-2.27.78-3.1 0-3.1-2.99 0-4.43 7.53-4.43 4.28 0 5.92 1.46 1.64 1.46 1.64 5.35v7.3q0 1.88 1.04 1.88 1.22 0 1.44-3.71l.54.03q-.14 3.17-1.19 4.36-1.04 1.19-3.42 1.19-4.32 0-4.97-2.67-.46 1.37-1.4 2.02-.94.65-2.74.65-5.32 0-5.32-4.36 0-2.55 2.03-3.51 2.03-.95 6.25-.95m-1.44 4.43q0 1.87.19 2.41.2.54.76.54t1.04-.92q.49-.92.49-2.54v-3.35h-.25q-2.23 0-2.23 3.28z"></path><rect width="19.04" height="17.86" x="-9.52" y="-8.93" fill="none" rx="0" ry="0" transform="translate(218.24 196.24)"></rect><path fill="#fff" d="M239.638 188.179q-1.33 0-2.34 1.73-1 1.73-1 4.1v9.65h2.55v.65h-11.23v-.65h1.98v-15.84h-1.98v-.65h8.68v3.46q.46-1.84 1.8-2.83 1.33-.99 3.02-.99t2.75.96q1.07.95 1.07 2.7 0 1.74-.8 2.68-.79.93-2.43.93-1.63 0-2.41-1.08-.77-1.08-.2-2.98h1.3q.9-1.84-.76-1.84"></path><rect width="17.32" height="17.5" x="-8.66" y="-8.75" fill="none" rx="0" ry="0" transform="translate(236.78 196.06)"></rect><path fill="#fff" d="M245.508 187.819v-.65h8.68v3.31q.57-1.65 1.76-2.66 1.19-1.01 3.6-1.01 5.58 0 5.58 6.01v10.84h2.02v.65h-10.19v-.65h1.48v-11.7q0-2.16-.29-2.79-.29-.63-1.05-.63-1.15 0-2.03 1.51-.88 1.51-.88 3.67v9.94h1.55v.65h-10.23v-.65h1.98v-15.84z"></path><rect width="21.64" height="17.5" x="-10.82" y="-8.75" fill="none" rx="0" ry="0" transform="translate(256.83 196.06)"></rect><path fill="#fff" d="m270.348 209.919-.43-.54q2.23-1.9 2.92-2.97.68-1.06.68-2.34 0-1.27-1.12-1.42l-1.72 1.55q-.83-.29-1.5-1.03-.66-.73-.66-1.9t.84-2q.85-.83 2.34-.83 1.5 0 2.43 1.15.94 1.15.94 3.06 0 1.91-1.12 3.67-1.11 1.77-3.6 3.6"></path><rect width="6.55" height="11.48" x="-3.27" y="-5.74" fill="none" rx="0" ry="0" transform="translate(272.3 204.68)"></rect><path fill="#fff" d="M294.868 203.909q1.8 0 3.18-.97 1.39-.97 1.39-2.93 0-1.97-1.49-3.01-1.5-1.04-4.25-1.82-2.76-.77-4-1.35-1.24-.57-2.36-1.51-2.23-1.87-2.23-5.8 0-3.2 2.29-5.5 2.28-2.31 6.24-2.31 1.91 0 3.98.56 2.07.56 2.58.56.5 0 .9-.72h.39l.25 7.27h-.57q-1.73-3.13-3.62-5.02-1.89-1.89-4.1-1.89-2.22 0-3.44 1.02-1.23 1.03-1.23 2.74 0 1.71 1.46 2.63 1.46.92 3.58 1.49 2.13.58 2.79.79.67.22 1.66.6.99.38 1.62.79.63.41 1.33 1.04.7.63 1.1 1.39.97 1.73.97 4.1 0 3.89-2.43 6.25t-6.39 2.36q-2.05 0-4.7-.54-2.64-.54-2.93-.54-.5 0-.97 1.08h-.51l-.36-8.57h.62q1.58 3.13 4.05 5.47 2.46 2.34 5.2 2.34"></path><rect width="18.29" height="25.96" x="-9.14" y="-12.98" fill="none" rx="0" ry="0" transform="translate(294.64 192.19)"></rect><path fill="#fff" d="M313.768 195.849h1.04v-2.77q0-3.42-.38-4.59-.37-1.17-1.45-1.17-.65 0-1.17.34-.53.34-.53.93 0 .6.22 1.21h.9q.29.76.29 1.82t-.9 1.83q-.9.78-2.27.78-3.1 0-3.1-2.99 0-4.43 7.53-4.43 4.28 0 5.92 1.46 1.64 1.46 1.64 5.35v7.3q0 1.88 1.04 1.88 1.23 0 1.44-3.71l.54.03q-.14 3.17-1.19 4.36-1.04 1.19-3.42 1.19-4.32 0-4.96-2.67-.47 1.37-1.41 2.02-.93.65-2.73.65-5.33 0-5.33-4.36 0-2.55 2.03-3.51 2.04-.95 6.25-.95m-1.44 4.43q0 1.87.2 2.41.19.54.75.54t1.05-.92q.48-.92.48-2.54v-3.35h-.25q-2.23 0-2.23 3.28z"></path><rect width="19.04" height="17.86" x="-9.52" y="-8.93" fill="none" rx="0" ry="0" transform="translate(315.5 196.24)"></rect><path fill="#fff" d="M326.008 187.819h-1.48v-.65h10.77v.65h-2.27l4.32 11.95 3.89-11.95h-2.42v-.65h4.86v.65h-1.58l-5.33 16.49h-4.1z"></path><rect width="19.15" height="17.14" x="-9.57" y="-8.57" fill="none" rx="0" ry="0" transform="translate(334.6 196.24)"></rect><path fill="#fff" d="M353.508 204.669q-4.64 0-6.96-2.4-2.33-2.39-2.33-6.66 0-4.26 2.61-6.53 2.61-2.27 6.65-2.27 8.17 0 7.84 8.21h-10.15v1.4q0 3.53.9 5.33.9 1.8 3.13 1.8 4.18 0 5.48-4.46l.64.11q-.68 2.59-2.46 4.03-1.78 1.44-5.35 1.44m-2.3-12.13v1.76h3.71v-1.76q0-2.92-.35-3.98-.34-1.06-1.36-1.06-1.03 0-1.52 1.13-.48 1.13-.48 3.91"></path><rect width="17.2" height="17.86" x="-8.6" y="-8.93" fill="none" rx="0" ry="0" transform="translate(353.32 196.24)"></rect><path fill="#fff" d="m365.358 209.919-.44-.54q2.24-1.9 2.92-2.97.68-1.06.68-2.34 0-1.27-1.11-1.42l-1.73 1.55q-.83-.29-1.49-1.03-.67-.73-.67-1.9t.85-2q.84-.83 2.34-.83 1.49 0 2.43 1.15.93 1.15.93 3.06 0 1.91-1.11 3.67-1.12 1.77-3.6 3.6"></path><rect width="6.55" height="11.48" x="-3.27" y="-5.74" fill="none" rx="0" ry="0" transform="translate(367.3 204.68)"></rect><path fill="#fff" d="M379.068 179.789v-.68h10.98v.68h-1.98v23.83h1.98v.69h-10.98v-.69h1.98v-23.83z"></path><rect width="10.98" height="25.2" x="-5.49" y="-12.6" fill="none" rx="0" ry="0" transform="translate(385.06 192.2)"></rect><path fill="#fff" d="M391.378 187.819v-.65h8.68v3.31q.58-1.65 1.76-2.66 1.19-1.01 3.6-1.01 5.58 0 5.58 6.01v10.84h2.02v.65h-10.19v-.65h1.48v-11.7q0-2.16-.29-2.79-.29-.63-1.04-.63-1.16 0-2.04 1.51-.88 1.51-.88 3.67v9.94h1.55v.65h-10.23v-.65h1.98v-15.84z"></path><rect width="21.64" height="17.5" x="-10.82" y="-8.75" fill="none" rx="0" ry="0" transform="translate(402.7 196.06)"></rect><path fill="#fff" d="M414.598 187.819h-1.47v-.65h10.76v.65h-2.27l4.32 11.95 3.89-11.95h-2.41v-.65h4.86v.65h-1.58l-5.33 16.49h-4.11z"></path><rect width="19.15" height="17.14" x="-9.57" y="-8.57" fill="none" rx="0" ry="0" transform="translate(423.2 196.24)"></rect><path fill="#fff" d="M442.108 204.669q-4.65 0-6.97-2.4-2.32-2.39-2.32-6.66 0-4.26 2.61-6.53 2.61-2.27 6.64-2.27 8.17 0 7.85 8.21h-10.15v1.4q0 3.53.9 5.33.9 1.8 3.13 1.8 4.18 0 5.47-4.46l.65.11q-.68 2.59-2.47 4.03-1.78 1.44-5.34 1.44m-2.31-12.13v1.76h3.71v-1.76q0-2.92-.34-3.98t-1.37-1.06q-1.02 0-1.51 1.13t-.49 3.91"></path><rect width="17.2" height="17.86" x="-8.6" y="-8.93" fill="none" rx="0" ry="0" transform="translate(441.92 196.24)"></rect><path fill="#fff" d="M452.478 204.669h-.44v-6.45h.44q.93 3.14 2.52 4.4 1.58 1.26 3.96 1.26 3.67 0 3.67-2.34 0-1.01-.9-1.52-1.41-.79-3.6-1.22-2.45-.65-4.11-1.73-1.98-1.29-1.98-4.1 0-2.81 1.73-4.48 1.73-1.68 4.61-1.68 1.76 0 3.64.83.68.29 1.04.29t.61-.25q.25-.26.61-.94h.4v5.51h-.43q-1.84-4.68-5.69-4.68-1.69 0-2.52.59-.83.6-.83 1.5 0 .54.25.84.26.31.4.45.14.15.47.31.32.16.54.25.21.09.66.23.45.15.67.18 2.45.62 3.53 1.07 1.08.45 2.05 1.09 1.98 1.37 1.98 4.41 0 3.05-1.8 4.61-1.8 1.57-4.93 1.57-2.23 0-4.32-1.05-.43-.28-.69-.28-.79 0-1.54 1.33"></path><rect width="13.72" height="17.93" x="-6.86" y="-8.96" fill="none" rx="0" ry="0" transform="translate(459.4 196.2)"></rect><path fill="#fff" d="M468.638 199.159v-11.34h-1.98v-.65h1.98v-4.64l6.7-1.66v6.3h4.68v.65h-4.68v12.13q0 1.69.34 2.49.34.79 1.42.79 1.08 0 1.89-1.08.81-1.08 1.06-2.95l.61.07q-.28 2.48-1.58 3.94t-4.28 1.46q-2.99 0-4.58-1.19-1.58-1.19-1.58-4.32"></path><rect width="14" height="23.8" x="-7" y="-11.9" fill="none" rx="0" ry="0" transform="translate(474.16 193.27)"></rect><path fill="#fff" d="m483.758 209.919-.43-.54q2.23-1.9 2.91-2.97.69-1.06.69-2.34 0-1.27-1.12-1.42l-1.73 1.55q-.82-.29-1.49-1.03-.67-.73-.67-1.9t.85-2q.85-.83 2.34-.83 1.49 0 2.43 1.15.94 1.15.94 3.06 0 1.91-1.12 3.67-1.12 1.77-3.6 3.6"></path><rect width="6.56" height="11.48" x="-3.28" y="-5.74" fill="none" rx="0" ry="0" transform="translate(485.7 204.68)"></rect><path fill="#fff" d="M497.118 179.789v-.68h10.58q5.44 0 8.1 1.56 2.66 1.57 2.66 5.6 0 4.47-3.24 6.16-3.02 1.55-8.46 1.55h-.28v9.64h4.5v.69h-13.86v-.69h2.34v-23.83zm10.33 0h-.97v13.5h.75q2.16 0 2.99-1.47.83-1.48.83-4.79v-1.73q0-3.06-.78-4.28-.77-1.23-2.82-1.23"></path><rect width="21.34" height="25.2" x="-10.67" y="-12.6" fill="none" rx="0" ry="0" transform="translate(508.29 192.2)"></rect><path fill="#fff" d="M531.778 188.179q-1.33 0-2.34 1.73-1 1.73-1 4.1v9.65h2.55v.65h-11.23v-.65h1.98v-15.84h-1.98v-.65h8.68v3.46q.46-1.84 1.8-2.83 1.33-.99 3.02-.99t2.75.96q1.07.95 1.07 2.7 0 1.74-.8 2.68-.79.93-2.43.93-1.63 0-2.41-1.08-.77-1.08-.2-2.98h1.3q.9-1.84-.76-1.84"></path><rect width="17.32" height="17.5" x="-8.66" y="-8.75" fill="none" rx="0" ry="0" transform="translate(528.92 196.06)"></rect><path fill="#fff" d="M549.208 197.219v-3.06q0-3.5-.38-5.1-.38-1.6-1.75-1.6-.79 0-1.27.45-.49.45-.71 1.49-.32 1.62-.32 4.94v2.8q0 3.93.23 4.72.24.79.49 1.3.4.86 1.55.86 1.4 0 1.83-1.62.33-1.15.33-5.18m-2.23 7.45q-4.5 0-6.81-2.31-2.3-2.3-2.3-6.6t2.46-6.63q2.47-2.32 6.93-2.32 4.47 0 6.66 2.14 2.2 2.15 2.2 6.54 0 9.18-9.14 9.18"></path><rect width="18.25" height="17.86" x="-9.13" y="-8.93" fill="none" rx="0" ry="0" transform="translate(547.5 196.24)"></rect><path fill="#fff" d="M558.928 199.159v-11.34h-1.98v-.65h1.98v-4.64l6.69-1.66v6.3h4.68v.65h-4.68v12.13q0 1.69.35 2.49.34.79 1.42.79 1.08 0 1.89-1.08.81-1.08 1.06-2.95l.61.07q-.29 2.48-1.58 3.94-1.3 1.46-4.29 1.46-2.98 0-4.57-1.19-1.58-1.19-1.58-4.32"></path><rect width="14" height="23.8" x="-7" y="-11.9" fill="none" rx="0" ry="0" transform="translate(564.45 193.27)"></rect><path fill="#fff" d="M580.778 204.669q-4.64 0-6.97-2.4-2.32-2.39-2.32-6.66 0-4.26 2.61-6.53 2.61-2.27 6.64-2.27 8.18 0 7.85 8.21h-10.15v1.4q0 3.53.9 5.33.9 1.8 3.13 1.8 4.18 0 5.47-4.46l.65.11q-.68 2.59-2.46 4.03-1.79 1.44-5.35 1.44m-2.3-12.13v1.76h3.7v-1.76q0-2.92-.34-3.98t-1.37-1.06q-1.02 0-1.51 1.13-.48 1.13-.48 3.91"></path><rect width="17.2" height="17.86" x="-8.6" y="-8.93" fill="none" rx="0" ry="0" transform="translate(580.59 196.24)"></rect><path fill="#fff" d="M599.968 187.459q-1.59 0-2.27 1.73-.68 1.73-.68 5.72v1.87q0 3.57.79 5.12.79 1.54 2.91 1.54 2.13 0 3.39-1.44 1.26-1.44 1.62-3.27l.65.07q-.69 3.1-2.52 4.46-1.88 1.41-5.15 1.41-4.18 0-6.41-2.25-2.23-2.25-2.23-6.59t2.54-6.68q2.53-2.34 7.07-2.34 3.2 0 4.9 1.24 1.69 1.25 1.69 3.12t-.81 2.73q-.81.87-2.23.87-1.43 0-2.29-.76-.86-.75-.86-2.23 0-.65.18-1.3h1.18q.26-.72.26-1.29 0-1.73-1.73-1.73"></path><rect width="16.31" height="17.86" x="-8.15" y="-8.93" fill="none" rx="0" ry="0" transform="translate(598.72 196.24)"></rect><path fill="#fff" d="M609.078 199.159v-11.34h-1.98v-.65h1.98v-4.64l6.69-1.66v6.3h4.68v.65h-4.68v12.13q0 1.69.34 2.49.35.79 1.43.79t1.89-1.08q.81-1.08 1.06-2.95l.61.07q-.29 2.48-1.58 3.94-1.3 1.46-4.29 1.46t-4.57-1.19q-1.58-1.19-1.58-4.32"></path><rect width="14" height="23.8" x="-7" y="-11.9" fill="none" rx="0" ry="0" transform="translate(614.6 193.27)"></rect><path fill="#3074f2" d="M166.374 74.976c.706-8.235.941-14.823-.235-20.705-4-22.116-24.234-38.115-48.938-44.938C96.967 3.686 59.793-4.55 36.029 11.686 23.324 20.39 15.325 37.33 13.442 62.27c-.705 9.882 3.53 29.645 6.823 40.939 3.294 11.293 5.882 16.47 7.765 21.175 2.117 4.94 8.235 28.704 6.588 42.585-2.589 21.176-19.058 33.88-27.293 40.233-2.588 2.118-1.412 6.118 1.647 6.588h85.877c3.294.47 5.647-2.823 3.765-5.647-4.235-6.823-5.412-13.881-2.118-21.88 1.647-3.765 3.294-5.412 7.764-3.53 5.882 2.588 12.235 5.176 18.588 6.588 4.47.941 5.411 1.176 10.352-1.882 4-2.353 6.823-6.117 6.352-12-.47-5.41-.705-6.587.471-9.175.706-1.647 2.823-3.294 3.764-5.882.236-.47-4.705-1.647-4.705-2.118.235-.47 5.176-.47 5.411-.941.706-2.353.236-4.706.941-7.294 1.177-4.47 3.53-9.881 7.765-10.117 1.647 0 3.058-.94 4.705-1.411 2.824-1.177 4-3.294 3.294-7.059-2.117-9.646-4.94-15.058-6.823-24.704-.47-1.882-.706-4.941.235-6.353 6.118-7.764 9.882-3.529 11.764-25.41m-32.233 4.706-7.529 7.529s-.235 0-.47.235c-4-9.882-12.235-12.94-19.764-11.764-8.235 1.176-15.293 8.47-16.47 17.41-.94 7.53 3.53 14.588 12.235 18.588-2.823 3.058-5.412 5.882-8.47 8.47-3.294 2.823-8.47 2.353-11.764-.706L71.32 108.856c-.706-.706-1.647-1.411-2.588-2.117-3.529-2.118-7.294-.47-8.235 3.529 0 .47 0 .941-.235 1.412-.47 4.235-2.353 7.529-6.823 8.705-4.235 1.176-8-.235-10.823-3.53-2.588-2.823-3.764-6.352-2.353-10.351 1.412-3.765 4.47-5.647 8.47-6.118.941 0 1.883-.235 2.824-.706 3.294-1.176 4.47-4.47 2.588-7.529-.47-.94-1.412-1.882-2.118-2.588-3.294-3.529-6.823-6.823-10.352-10.352-4-4-4-8.94 0-13.176l10.352-10.352c.706-.706 1.412-1.412 1.883-2.117 2.352-3.765.47-7.765-3.765-8.47-.941-.236-1.882-.236-2.823-.471-6.588-1.647-9.647-8-6.118-14.117 1.647-3.059 4.235-5.176 7.765-5.882 5.411-1.176 10.587 2.588 11.293 8.235.235 2.823.706 5.647 4 6.588 3.058.94 5.176-.941 7.294-2.824l10.117-10.117c4-4 8.94-4 12.94 0l9.882 9.882c.47.47.94.941 1.647 1.412 1.882 1.647 3.764 2.588 6.117 1.647 2.588-.941 3.294-3.059 3.53-5.412.47-4.47 2.823-7.764 6.587-8.94 5.647-1.647 12 2.352 13.411 8.47 1.176 5.646-2.353 10.587-8.705 11.528-.471 0-.942 0-1.412.236-4.47.706-6.353 4.705-3.765 8.47.471.706 1.177 1.411 1.883 2.117 3.529 3.53 6.823 7.059 10.352 10.588 4 4.235 4 9.176 0 13.176"></path><path fill="#3074f2" d="M75.226 72.958a17.732 17.732 0 0 0-.316-.087 9.995 9.995 0 0 1-.279-.075l-.094-.028c-1.425-.436-1.71-.98-1.71-1.715 0-.55.216-1.483 1.688-1.557a2.687 2.687 0 0 1 .647.023 1.753 1.753 0 0 1 1.575 1.226.54.54 0 0 0 .51.347.557.557 0 0 0 .448-.228.534.534 0 0 0 .078-.482 2.694 2.694 0 0 0-2.434-1.836v-.58a.503.503 0 1 0-1.006 0v.564c-1.572.138-2.618 1.165-2.618 2.595 0 1.609 1.092 2.246 2.73 2.707.056.017.112.032.169.047l.13.036c.137.037.269.075.39.112 1.52.49 1.832 1.135 1.832 1.954 0 1.091-.57 1.645-1.797 1.742a2.82 2.82 0 0 1-.662-.004 2.135 2.135 0 0 1-1.885-1.53.545.545 0 0 0-.526-.395.53.53 0 0 0-.42.207.522.522 0 0 0-.096.454 2.971 2.971 0 0 0 2.753 2.238v.89a.503.503 0 1 0 1.006 0v-.895c1.751-.17 2.752-1.171 2.752-2.764 0-1.51-.83-2.368-2.865-2.966"></path><path fill="#3074f2" d="M85.91 64.006a24.827 24.827 0 0 0-3.429-5.303 1.217 1.217 0 0 0-.032-.26 5.404 5.404 0 0 1-.05-.852v-1.174a3.137 3.137 0 0 1 .947-2.185 4.465 4.465 0 0 0 .246-6.004 2.488 2.488 0 0 0-1.894-.872h-2.582l.202-.315.808-1.263 2.43-3.814-.182-.34A8.545 8.545 0 0 0 75.46 37.5s-.07-.006-.12-.006h-.537c-.057 0-.126.006-.126.006a8.513 8.513 0 0 0-6.927 4.123l-.183.341 1.838 2.88.568.896-.587.682-1.882 2.166-2.044-.002h-1.752l.135-.642a.631.631 0 0 0-.487-.749.601.601 0 0 0-.128 0l.002-.017-13.37-1.389a.631.631 0 0 0-.132 1.256l12.734 1.324-2.12 10.03-13.698-1.593a.631.631 0 1 0-.145 1.254l14.27 1.659.001-.013a.626.626 0 0 0 .69-.488l.216-1.02a27.65 27.65 0 0 1 4.868 1.256 25.957 25.957 0 0 0-2.797 4.552c-3.359 6.807-4.52 12.32-3.535 16.859a11.233 11.233 0 0 0 1.584 3.832c3.107 4.736 8.467 5.424 12.294 5.506l.82.007.657-.007c2.179.002 4.343-.34 6.415-1.01a11.14 11.14 0 0 0 7.463-8.328c.979-4.54-.176-10.052-3.535-16.859M69.095 41.94a7.177 7.177 0 0 1 5.727-3.138h.48a7.166 7.166 0 0 1 5.727 3.138l-2.45 3.839-1.8 2.822h-3.371l-.55-.776-.031-.044-2.532-3.966Zm-4.92 15.471a21.384 21.384 0 0 0-1.455-.313c-.07-.013-.43-.07-.785-.126l1.504-7.12h4.645l2.008-2.318.556-.644.606.865.6.846.89 1.263h5.683a.63.63 0 0 0 .145-1.244h3.189c.31 0 .608.133.814.366a3.197 3.197 0 0 1-.145 4.376 4.398 4.398 0 0 0-1.295 3.132v1.098a6.13 6.13 0 0 0 .076 1.1c.02.097.026.197.02.296a1.198 1.198 0 0 1-1.301 1.111h-7.344a8.67 8.67 0 0 1-3.99-1.03 5.45 5.45 0 0 1-.423-.226 9.892 9.892 0 0 0-.77-.398 19.466 19.466 0 0 0-3.228-1.034M88.17 80.587a10.08 10.08 0 0 1-1.402 3.397c-2.873 4.376-8.145 4.906-11.857 4.919h-.165c-3.712-.013-8.984-.543-11.857-4.919a10.08 10.08 0 0 1-1.402-3.397c-.916-4.237.208-9.47 3.428-16a24.41 24.41 0 0 1 2.83-4.546 10.001 10.001 0 0 0 4.842 1.32h7.343a2.59 2.59 0 0 0 2.147-1.111 25 25 0 0 1 2.658 4.337c3.227 6.53 4.35 11.763 3.435 16"></path><path fill="#3074f2" d="M59.013 57.453a.631.631 0 0 0 .162-1.252l-4.94-.638a.631.631 0 0 0-.163 1.252Z"></path></svg></svg>